<?xml version="1.0" standalone="no"?>
<!DOCTYPE svg PUBLIC "-//W3C//DTD SVG 20010904//EN"
 "http://www.w3.org/TR/2001/REC-SVG-20010904/DTD/svg10.dtd">
<svg version="1.0" xmlns="http://www.w3.org/2000/svg"
 width="336.000000pt" height="375.000000pt" viewBox="0 0 336.000000 375.000000"
 preserveAspectRatio="xMidYMid meet">

<g transform="translate(0.000000,375.000000) scale(0.100000,-0.100000)"
fill="#000000" stroke="none">
<path d="M1640 3633 c-14 -3 -76 -22 -139 -44 -62 -21 -125 -39 -140 -39 -35
0 -55 -15 -48 -34 4 -10 1 -16 -8 -16 -8 0 -15 -7 -15 -15 0 -8 -9 -24 -21
-36 -21 -21 -20 -58 3 -106 8 -17 7 -30 -6 -56 -22 -48 -21 -102 4 -127 29
-29 25 -57 -15 -101 -19 -22 -35 -44 -35 -49 0 -6 -11 -10 -25 -10 -14 0 -25
-4 -25 -10 0 -5 9 -10 20 -10 17 0 20 -7 20 -51 0 -51 29 -119 51 -119 5 0 9
-35 9 -78 0 -188 85 -327 232 -380 52 -18 52 -17 22 -108 -13 -40 -12 -44 22
-115 20 -41 51 -90 70 -109 19 -20 43 -53 54 -74 19 -39 19 -39 0 -64 -23 -28
-44 -98 -36 -118 9 -23 26 -16 26 11 0 39 26 84 83 142 l50 52 -6 53 c-4 29
-9 63 -13 76 -3 12 -2 22 2 22 8 0 124 -151 150 -196 11 -19 12 -19 34 1 13
11 43 62 67 114 40 85 83 158 131 220 l19 23 43 -27 c24 -15 103 -51 175 -80
182 -73 244 -106 306 -163 89 -82 129 -161 206 -407 36 -115 136 -506 131
-509 -2 -2 -62 -12 -134 -25 -153 -25 -293 -66 -301 -87 -12 -31 -23 -11 -23
44 0 31 -7 113 -15 180 -14 118 -13 126 5 175 22 58 21 70 -5 31 l-18 -27 -13
24 c-11 22 -13 22 -20 5 -9 -24 3 -306 16 -370 5 -27 8 -51 6 -53 -2 -2 -113
26 -247 62 -163 44 -251 73 -266 87 -17 16 -29 19 -60 14 -28 -5 -59 1 -123
25 -197 71 -286 99 -311 99 -19 0 -43 -14 -76 -44 -61 -57 -50 -72 13 -17 26
22 54 41 62 41 27 0 275 -82 288 -95 7 -7 54 -23 103 -35 69 -17 92 -27 96
-41 14 -42 -20 -162 -52 -186 -13 -10 -27 -6 -77 19 -33 17 -76 32 -94 34 -18
1 -51 12 -73 23 -50 26 -85 26 -140 1 -48 -22 -89 -26 -89 -9 0 38 51 69 138
84 41 7 59 25 24 25 -34 0 -119 -30 -146 -51 -34 -27 -90 -23 -94 6 -2 15 3
21 18 22 11 1 34 13 51 27 27 23 37 25 87 21 42 -3 49 -2 27 4 -62 18 -110 13
-135 -14 -35 -37 -56 -33 -64 13 -24 131 -127 501 -163 585 -19 44 -53 65
-118 74 -25 3 -48 10 -51 15 -3 5 12 52 32 105 49 121 97 177 202 233 130 70
137 83 18 38 -164 -63 -203 -105 -270 -289 -31 -87 -18 -83 -216 -55 -245 35
-620 66 -653 53 -11 -4 -4 -65 40 -339 91 -566 93 -577 156 -603 18 -7 138
-25 267 -39 129 -14 254 -29 277 -32 l41 -6 4 -127 c3 -111 6 -130 25 -157 33
-46 124 -105 172 -111 37 -5 41 -8 41 -34 0 -15 4 -30 9 -33 22 -14 34 66 38
244 l3 185 68 -5 c187 -14 215 -8 429 84 l82 35 52 -34 c28 -19 55 -35 61 -35
5 0 145 -71 311 -159 166 -87 326 -169 355 -181 50 -22 52 -24 52 -62 0 -27 4
-38 13 -35 6 2 11 17 10 33 l-2 29 93 0 c87 0 95 2 130 29 21 16 51 49 67 75
48 75 60 130 60 284 -1 127 1 137 18 137 10 0 24 7 31 15 18 21 -14 185 -85
440 -97 345 -141 447 -235 548 -72 77 -137 113 -351 195 -187 72 -227 91 -209
102 10 6 7 18 -13 52 -33 56 -64 84 -104 93 -18 3 -33 9 -33 12 0 10 114 128
125 129 27 2 71 18 77 28 4 5 2 18 -3 28 -8 15 -5 20 16 28 56 21 81 116 51
200 -10 31 -9 40 8 75 42 82 32 235 -23 352 -21 44 -26 64 -18 72 7 7 6 16 -5
28 -9 10 -18 27 -20 38 -2 15 -12 21 -42 23 -22 2 -53 14 -70 27 -117 87 -384
160 -506 138z m-140 -373 c47 -4 116 -19 156 -33 96 -34 182 -45 190 -23 3 9
0 24 -7 33 -13 15 -11 16 11 9 14 -3 64 -16 113 -28 l87 -21 15 -51 c14 -47
35 -149 35 -166 0 -9 -111 -30 -158 -30 -24 0 -35 6 -46 28 -22 43 -109 119
-145 127 -37 8 -64 -9 -56 -35 4 -11 -3 -20 -20 -28 -14 -7 -34 -26 -43 -42
-13 -24 -21 -29 -37 -24 -11 4 -41 8 -66 9 -39 1 -51 6 -73 32 l-26 31 29 7
c43 9 59 31 38 52 -15 16 -20 15 -69 -5 -34 -13 -63 -19 -82 -15 l-29 6 6 74
c5 61 10 77 29 93 14 12 31 18 43 14 11 -3 58 -9 105 -14z m-137 -197 c4 -3 2
-12 -4 -19 -6 -7 -9 -28 -7 -46 l4 -33 11 25 c20 47 37 53 65 22 27 -29 52
-88 27 -64 -21 20 -56 14 -78 -14 -11 -15 -18 -30 -15 -35 9 -15 29 -10 42 11
10 16 16 18 32 10 67 -36 1 -125 -88 -118 l-37 3 -3 60 c-2 33 -1 93 3 133 6
59 10 72 24 72 10 0 21 -3 24 -7z m-91 -148 l-8 -80 -18 34 c-22 42 -18 117
10 158 l19 28 3 -30 c1 -16 -1 -66 -6 -110z m548 89 c21 -20 43 -33 48 -30 6
3 16 -9 23 -26 31 -75 4 -142 -67 -167 -54 -19 -107 -8 -151 32 -85 79 -37
225 74 227 24 0 44 -10 73 -36z m-236 -44 c22 -8 26 -16 26 -52 0 -58 28 -108
76 -135 101 -58 239 3 239 106 0 34 3 40 30 49 16 6 56 14 88 17 l57 7 0 -36
c0 -50 24 -58 59 -19 59 65 102 49 121 -43 18 -84 -7 -134 -67 -134 -22 0 -33
-5 -33 -14 0 -29 -45 -93 -127 -178 l-83 -88 21 -42 22 -42 -39 -34 c-22 -18
-76 -58 -122 -88 -104 -68 -120 -97 -99 -177 16 -59 10 -87 -25 -111 -22 -16
-23 -15 -31 14 -4 17 -28 50 -52 74 -25 23 -58 66 -74 95 -27 51 -28 55 -15
99 8 25 14 57 14 72 0 27 2 27 75 33 81 6 137 30 143 61 4 20 7 20 -121 -2
-105 -19 -223 27 -288 112 -45 59 -58 100 -66 199 l-6 77 49 0 c27 0 61 6 75
14 26 13 27 13 33 -15 3 -15 15 -33 27 -39 40 -22 128 12 116 45 -6 13 -12 12
-47 -6 -33 -17 -43 -19 -55 -9 -21 17 -19 46 5 70 25 25 25 34 1 27 -17 -4
-19 1 -19 42 1 25 6 49 12 53 15 11 50 10 80 -2z m486 -545 c-13 -14 -27 -25
-32 -25 -4 0 -8 11 -8 25 0 21 5 25 32 25 l31 0 -23 -25z m90 -59 l23 -42 -62
-75 c-39 -45 -80 -111 -108 -169 -25 -52 -50 -100 -55 -107 -7 -9 -26 8 -68
60 -32 40 -67 81 -79 91 -11 11 -21 24 -21 31 0 6 45 42 100 79 90 61 210 175
210 199 0 18 37 -23 60 -67z m-1750 -526 c284 -21 720 -83 769 -109 32 -17
105 -262 200 -666 27 -116 48 -211 47 -212 -1 -2 -51 4 -112 12 -60 8 -291 34
-512 60 -222 25 -412 50 -423 55 -10 6 -23 19 -29 30 -6 10 -35 162 -65 337
-30 175 -61 354 -70 398 -8 44 -15 86 -15 93 0 15 32 15 210 2z m2050 -841
c151 -39 291 -78 310 -86 23 -9 31 -10 23 -2 -7 7 -42 22 -78 35 -37 12 -63
24 -58 27 43 24 378 108 400 100 12 -5 19 -33 9 -33 -2 0 -11 -3 -19 -6 -10
-3 -17 2 -20 13 -3 10 -5 -28 -6 -84 -2 -198 -27 -302 -91 -383 -42 -54 -90
-74 -159 -67 -87 8 -136 29 -426 179 -370 193 -359 186 -340 204 21 21 45 109
45 164 l0 47 68 -19 c37 -10 191 -51 342 -89z m-985 1 c-3 -6 -3 -19 0 -30 8
-27 53 -26 107 1 45 23 72 22 157 -8 l53 -19 -43 -11 c-24 -6 -83 -25 -131
-42 -47 -17 -106 -34 -131 -37 -50 -7 -48 -11 -62 98 -5 39 -3 47 12 51 32 8
44 7 38 -3z m-350 -160 c50 -5 93 -10 98 -10 18 0 -1 -302 -21 -322 -30 -30
-182 80 -182 133 0 13 -9 66 -20 118 -11 52 -20 95 -20 97 0 2 12 1 28 -1 15
-3 68 -9 117 -15z"/>
<path d="M1701 2934 c-33 -27 -42 -64 -16 -64 9 0 26 12 39 27 21 25 25 26 41
13 10 -8 24 -28 31 -45 10 -25 14 -27 19 -12 14 35 -34 107 -71 107 -7 0 -26
-12 -43 -26z"/>
<path d="M2188 2848 c-27 -15 -38 -29 -38 -45 0 -26 22 -31 42 -10 6 8 22 11
35 9 21 -4 23 -1 23 32 0 42 -10 44 -62 14z"/>
<path d="M1626 2639 c-34 -35 -73 -37 -110 -8 -21 17 -29 19 -41 9 -22 -18
-19 -28 18 -50 59 -36 141 -19 165 35 24 52 12 58 -32 14z"/>
<path d="M760 1430 c-8 -5 -11 -12 -7 -16 4 -4 13 -2 19 4 6 6 10 14 7 16 -2
3 -11 1 -19 -4z"/>
<path d="M676 1381 c-22 -24 -20 -63 5 -95 16 -21 29 -26 63 -26 57 0 86 28
66 65 -10 19 -10 28 -1 38 18 22 -6 35 -65 35 -37 1 -56 -4 -68 -17z m110 -25
c-3 -11 -1 -28 4 -36 14 -23 -8 -40 -51 -40 -42 0 -59 18 -59 63 0 33 5 36 62
35 46 0 49 -2 44 -22z"/>
<path d="M1470 2273 c-35 -24 -40 -33 -40 -79 0 -34 8 -52 45 -100 43 -55 50
-73 46 -121 -3 -34 18 -38 50 -7 l29 28 26 -25 27 -24 -17 32 c-21 43 -31 47
-61 27 -24 -16 -25 -16 -25 6 0 26 -12 49 -56 107 -45 60 -46 101 -1 142 35
34 19 43 -23 14z"/>
<path d="M1822 1947 c-12 -22 -31 -37 -53 -43 -19 -5 -35 -17 -37 -26 -3 -14
2 -13 38 4 27 14 48 34 61 59 24 48 18 51 -9 6z"/>
<path d="M2457 1889 c-42 -142 -75 -401 -50 -386 6 4 14 28 17 54 4 27 18 119
32 206 27 168 27 217 1 126z"/>
<path d="M2285 1848 c-23 -79 -17 -266 8 -238 6 7 19 290 13 290 -3 0 -12 -23
-21 -52z"/>
<path d="M1455 1182 c-36 -22 -62 -52 -47 -52 6 0 28 12 49 26 35 24 43 26
113 20 41 -3 91 -8 110 -11 32 -4 31 -3 -10 10 -25 9 -76 18 -115 21 -58 4
-75 2 -100 -14z"/>
<path d="M1638 1093 c7 -3 16 -2 19 1 4 3 -2 6 -13 5 -11 0 -14 -3 -6 -6z"/>
<path d="M1850 820 c0 -28 133 -254 166 -281 50 -41 7 47 -98 204 -57 85 -68
97 -68 77z"/>
</g>
</svg>
