<?xml version="1.0" standalone="no"?>
<!DOCTYPE svg PUBLIC "-//W3C//DTD SVG 20010904//EN"
 "http://www.w3.org/TR/2001/REC-SVG-20010904/DTD/svg10.dtd">
<svg version="1.0" xmlns="http://www.w3.org/2000/svg"
 width="600.000000pt" height="459.000000pt" viewBox="0 0 600.000000 459.000000"
 preserveAspectRatio="xMidYMid meet">

<g transform="translate(0.000000,459.000000) scale(0.100000,-0.100000)"
fill="#000000" stroke="none">
<path d="M3400 4216 c0 -2 7 -17 15 -32 19 -37 19 -67 0 -107 l-16 -32 21 24
c30 35 23 151 -10 151 -5 0 -10 -2 -10 -4z"/>
<path d="M3150 4119 c-306 -62 -586 -100 -967 -130 -149 -12 -153 -13 -153
-35 0 -13 4 -34 10 -48 11 -31 32 -33 128 -11 91 21 495 84 503 80 10 -7 -2
-109 -15 -121 -6 -7 -63 -19 -126 -28 -204 -28 -584 -76 -607 -76 -20 0 -22 6
-25 58 -3 53 -5 57 -28 60 -49 5 -56 -10 -36 -75 24 -73 29 -117 29 -215 l-1
-78 33 0 c50 0 60 19 41 82 -8 29 -13 54 -11 56 2 2 118 6 257 9 180 4 264 3
289 -6 20 -6 78 -50 132 -100 60 -55 112 -94 135 -101 51 -17 58 -26 31 -41
-13 -6 -27 -17 -31 -23 -25 -36 14 -76 53 -55 18 9 20 17 15 49 -3 21 -3 41 1
43 5 2 52 8 106 11 l97 7 0 -100 c0 -56 -4 -103 -10 -106 -13 -8 -13 -82 0
-90 6 -4 8 -15 5 -25 -4 -12 3 -23 20 -34 27 -18 33 -40 13 -52 -7 -4 -18 2
-26 14 -17 26 -35 28 -57 6 -10 -11 -14 -25 -11 -40 8 -30 -8 -41 -541 -358
-177 -105 -316 -203 -332 -235 -6 -11 -11 -37 -11 -58 0 -40 90 -582 114 -684
l14 -60 -32 -23 c-17 -13 -51 -34 -75 -46 -42 -21 -46 -21 -72 -6 -73 43 -159
0 -159 -80 0 -38 -3 -41 -72 -87 -63 -41 -78 -47 -125 -47 -29 0 -53 4 -53 8
0 5 11 19 25 32 14 13 25 27 25 32 0 15 -46 -21 -60 -47 -13 -25 -15 -25 -147
-25 l-133 0 0 137 c0 125 2 139 21 159 16 17 21 38 24 97 2 57 10 87 31 128
18 37 29 79 35 132 9 88 5 107 -21 107 -33 0 -134 -94 -160 -149 -13 -28 -25
-50 -26 -48 -3 3 43 207 48 212 2 1 18 10 36 19 39 20 77 94 68 131 -7 29 -42
39 -56 17 -9 -16 -9 -16 -10 0 -1 46 -127 72 -169 34 -30 -27 -28 -93 5 -156
l25 -49 -20 -103 c-11 -57 -23 -122 -26 -145 -12 -81 -23 -43 -29 105 -6 126
-11 156 -33 210 -14 34 -30 65 -36 69 -12 7 -37 -22 -74 -85 -22 -36 -26 -55
-25 -115 l1 -72 -30 85 c-23 67 -27 90 -19 108 14 32 12 107 -4 146 -13 32
-81 106 -98 106 -4 0 -8 -17 -8 -39 0 -21 -7 -58 -15 -81 -24 -68 -20 -98 19
-134 25 -22 39 -47 50 -91 9 -33 29 -103 46 -155 l30 -95 -21 -16 c-19 -14
-21 -24 -17 -82 2 -41 10 -73 20 -84 12 -14 17 -50 20 -162 l5 -144 -448 5
c-350 3 -449 2 -449 -8 0 -9 78 -11 348 -9 191 2 393 1 450 -2 97 -6 102 -7
102 -28 0 -32 19 -44 101 -61 87 -19 215 -14 272 9 31 14 37 21 37 46 l0 31
131 0 131 0 -6 -25 c-4 -14 -3 -31 1 -38 5 -7 10 1 13 23 5 35 6 35 60 38 52
3 54 3 37 -16 -9 -10 -24 -51 -33 -90 -11 -50 -27 -86 -51 -117 -47 -62 -43
-89 14 -93 40 -3 43 -1 80 50 22 29 51 79 67 111 15 31 31 55 35 53 4 -3 13
-23 21 -45 11 -34 11 -50 0 -95 -14 -60 -9 -76 24 -76 31 0 42 15 66 86 18 51
19 65 9 105 l-12 46 44 41 44 41 131 1 131 0 16 -58 c25 -91 21 -90 225 -59
97 15 227 34 287 43 61 8 189 28 287 45 138 23 205 29 310 28 161 -1 240 -10
246 -26 2 -7 -3 -13 -11 -13 -9 0 -18 -8 -21 -17 -9 -30 -26 -185 -26 -235 0
-27 -3 -48 -7 -48 -4 0 -22 14 -40 32 l-32 31 24 29 c28 34 32 75 10 117 -17
33 -33 41 -85 41 -52 0 -68 -8 -85 -41 -20 -38 -19 -68 5 -106 19 -33 19 -33
-1 -44 -31 -16 -67 -104 -80 -194 -11 -75 -11 -79 10 -96 19 -15 21 -27 21
-108 l0 -91 -65 0 c-37 0 -65 -4 -65 -10 0 -6 41 -10 104 -10 120 0 116 -4
116 112 0 37 5 79 11 95 l12 28 8 -29 c4 -16 9 -63 10 -104 2 -59 6 -79 21
-94 17 -17 22 -18 41 -5 27 18 32 75 19 227 -5 58 -7 108 -5 112 2 4 14 2 28
-4 18 -8 25 -21 30 -59 4 -26 15 -65 26 -86 12 -24 19 -58 19 -98 0 -33 5 -67
10 -75 7 -10 10 6 10 54 0 66 2 72 42 124 73 97 108 176 108 240 l-1 57 -24
-28 c-31 -35 -31 -30 0 24 17 30 25 59 25 91 0 41 6 82 26 176 l4 22 346 0
347 0 -5 -50 c-4 -41 -2 -50 11 -50 13 0 15 9 13 50 l-4 50 254 -2 253 -3 -1
-48 c0 -37 3 -47 14 -42 7 3 15 5 18 5 2 0 2 6 0 13 -3 6 -7 27 -10 45 l-5 32
479 0 c313 0 480 3 480 10 0 7 -166 10 -479 10 l-479 0 -6 52 c-3 29 -10 123
-16 208 -6 85 -26 312 -46 504 -34 326 -35 350 -20 362 13 9 16 24 14 61 l-3
48 -55 5 -55 5 -12 115 c-20 195 -20 202 7 241 l25 34 3 -45 c1 -25 5 -60 8
-78 5 -30 8 -33 37 -30 21 2 32 8 32 18 -2 78 -17 407 -21 448 l-5 52 37 0
c21 0 45 -7 55 -16 15 -14 22 -10 83 41 36 31 66 62 66 70 0 8 -39 34 -87 59
l-87 45 -21 -23 c-16 -17 -43 -26 -125 -40 -58 -9 -109 -21 -113 -25 -4 -4 -4
-30 0 -57 9 -49 9 -49 46 -47 21 1 48 -2 62 -7 25 -9 25 -11 25 -133 l0 -123
-30 -22 c-28 -21 -32 -21 -54 -7 l-23 15 19 40 c17 33 18 45 9 72 -19 54 -39
68 -93 68 -41 0 -54 -5 -79 -29 -16 -16 -29 -38 -29 -49 0 -36 21 -81 46 -97
14 -9 22 -20 19 -25 -15 -25 -25 -130 -26 -291 l-2 -179 -63 0 c-37 0 -66 -5
-70 -12 -15 -24 -4 -93 17 -109 l21 -16 -11 -379 c-7 -208 -15 -457 -18 -551
l-6 -173 -338 0 c-187 0 -339 4 -339 9 0 5 11 33 24 63 24 55 25 55 84 67 97
19 95 14 68 171 -25 140 -53 377 -82 685 -17 182 -34 273 -58 310 -8 11 -60
40 -117 64 -162 69 -364 173 -484 251 -90 58 -111 77 -118 103 -5 17 -17 43
-28 58 -13 18 -19 44 -19 79 0 32 -6 57 -15 66 -11 12 -15 39 -15 108 l0 93
94 12 c112 14 136 7 136 -40 0 -22 6 -32 26 -41 23 -11 29 -10 45 11 25 30 10
59 -33 63 -41 4 -46 22 -10 37 36 15 53 49 59 122 13 139 -106 260 -285 291
-58 10 -86 9 -168 -4 -66 -11 -103 -13 -111 -7 -15 13 -44 99 -37 110 3 5 22
9 42 9 20 0 102 9 182 19 80 11 179 22 220 26 110 11 122 17 118 62 -4 49 -7
49 -188 12z m176 -4 c11 -27 -15 -43 -84 -50 -37 -3 -134 -15 -217 -25 -225
-28 -263 -31 -269 -21 -3 5 27 15 66 21 40 7 161 30 268 51 227 44 229 44 236
24z m-646 -104 c0 -11 -40 -20 -320 -67 -320 -53 -298 -52 -310 -19 -8 20 -8
30 0 35 6 4 66 10 133 14 67 4 192 15 277 25 186 22 220 24 220 12z m84 -69
c16 -40 27 -74 25 -77 -2 -2 -26 -5 -53 -7 l-49 -3 2 65 c1 36 4 73 7 83 11
37 39 12 68 -61z m408 -87 c92 -33 202 -161 177 -207 -13 -24 -49 -24 -49 0 0
11 -9 27 -19 36 -25 22 -58 13 -73 -20 -9 -20 -19 -24 -53 -24 -27 0 -51 7
-66 19 l-23 19 32 27 c52 44 41 111 -23 135 -72 27 -142 -51 -105 -119 7 -14
4 -23 -15 -41 -13 -12 -29 -35 -35 -50 -11 -26 -14 -28 -36 -18 -32 15 -84
120 -84 170 0 47 25 75 77 83 21 4 45 8 53 10 35 9 199 -5 242 -20z m-1292
-62 c0 -60 -9 -62 -29 -4 -16 48 -14 61 9 61 18 0 20 -7 20 -57z m903 7 c-5
-43 -1 -59 26 -115 49 -99 61 -105 205 -105 120 0 291 21 327 41 17 8 19 6 18
-18 -1 -47 -24 -97 -50 -109 -31 -15 -252 -43 -395 -51 -154 -8 -181 2 -312
122 l-104 93 -74 7 c-40 4 -178 6 -305 4 -211 -4 -233 -2 -243 13 -18 29 6 41
106 54 183 24 267 36 528 73 146 21 268 39 272 40 4 0 4 -21 1 -49z m320 -1
c17 -24 18 -30 6 -55 -17 -35 -59 -52 -96 -38 -23 8 -29 16 -31 48 -4 51 20
78 66 74 24 -2 41 -11 55 -29z m-46 -132 c25 -32 55 -47 93 -47 17 0 29 -4 26
-8 -6 -10 -223 -25 -236 -17 -11 7 5 53 27 77 23 26 68 23 90 -5z m224 -8 c13
-26 4 -37 -39 -45 -28 -6 -32 -4 -32 14 0 24 25 52 45 52 8 0 19 -9 26 -21z
m-1361 -77 c15 -54 13 -62 -15 -62 -27 0 -31 17 -19 79 8 38 20 32 34 -17z
m3150 -132 c32 -16 62 -35 65 -41 4 -6 -4 -23 -18 -37 -32 -34 -87 -67 -87
-53 0 7 -45 11 -130 11 -120 0 -130 1 -140 21 -6 11 -10 30 -8 42 3 20 14 23
118 39 75 12 118 23 125 33 12 19 5 20 75 -15z m-2021 -162 c1 -26 -3 -50 -9
-53 -9 -5 -12 45 -12 160 0 74 20 -25 21 -107z m309 115 c-2 -10 -12 -18 -23
-18 -11 0 -21 8 -23 18 -3 13 3 17 23 17 20 0 26 -4 23 -17z m-568 -38 c15
-18 5 -35 -20 -35 -10 0 -22 5 -25 10 -7 11 12 40 25 40 4 0 13 -7 20 -15z
m2131 -156 c4 -57 8 -169 10 -249 3 -124 2 -145 -11 -145 -22 0 -32 128 -14
174 12 29 12 36 0 50 -14 17 -31 263 -18 275 18 19 28 -11 33 -105z m-1843
-27 c3 -33 3 -33 -35 -30 -44 3 -58 32 -27 55 32 23 59 12 62 -25z m1679 5 c8
-7 16 -29 19 -48 7 -44 -25 -86 -72 -95 -39 -7 -81 27 -90 73 -5 27 -1 37 25
64 28 27 37 31 68 26 20 -4 43 -12 50 -20z m-1664 -98 c35 -53 34 -83 -2 -120
-32 -32 -47 -35 -86 -17 -32 15 -32 26 3 40 66 28 79 63 37 96 -31 25 -32 42
-2 42 16 0 32 -12 50 -41z m-93 -64 c0 -16 -27 -32 -37 -22 -3 4 -3 13 0 22 8
20 37 20 37 0z m1774 -10 c10 -7 15 -19 11 -25 -5 -9 -10 -9 -18 -1 -6 6 -18
11 -26 11 -12 -1 -10 -6 8 -20 31 -26 35 -26 80 15 39 36 71 45 71 22 0 -32
-94 -137 -123 -137 -25 0 -85 47 -103 81 -23 46 -8 61 66 67 8 1 23 -5 34 -13z
m-1254 -251 c85 -41 177 -85 204 -97 l49 -23 -204 -27 c-112 -15 -440 -55
-729 -87 -289 -33 -565 -67 -614 -75 -49 -9 -91 -14 -93 -11 -9 8 145 109 387
254 135 80 287 173 339 205 93 59 95 59 122 43 44 -26 97 -21 127 12 l26 28
115 -74 c64 -40 186 -107 271 -148z m1192 126 c28 -22 61 -40 74 -40 13 0 24
-6 24 -12 0 -7 7 -78 15 -157 8 -79 12 -148 9 -153 -3 -5 -13 -8 -22 -6 -14 3
-19 23 -27 107 -8 80 -14 106 -27 115 -32 20 -48 -12 -58 -115 -5 -52 -10 -97
-10 -101 0 -16 -30 -7 -40 11 -17 32 -10 391 7 391 3 0 28 -18 55 -40z m52
-182 c3 -13 6 -54 6 -91 l0 -68 -27 3 c-27 3 -28 5 -25 58 4 85 12 120 26 120
8 0 16 -10 20 -22z m-921 -106 c10 -9 17 -29 17 -52 0 -33 -8 -45 -73 -106
-40 -38 -151 -132 -247 -208 -96 -77 -210 -170 -252 -207 -42 -37 -88 -75
-102 -85 -30 -19 12 -28 -375 82 -325 91 -652 216 -713 271 -21 19 -25 95 -5
110 23 19 364 66 892 123 209 23 479 54 600 70 121 15 225 25 230 22 6 -3 18
-12 28 -20z m802 -88 c24 -16 65 -12 65 7 0 16 67 10 74 -6 7 -19 36 -19 64 1
33 23 106 16 110 -11 6 -47 -5 -50 -220 -55 -112 -3 -208 -4 -215 -2 -14 4
-27 57 -18 72 10 16 113 12 140 -6z m-751 -169 c8 -77 17 -176 21 -220 8 -101
51 -441 69 -548 8 -45 12 -85 10 -89 -3 -4 -21 -10 -42 -14 -20 -4 -46 -11
-56 -16 -16 -9 -18 -7 -12 7 15 40 17 64 6 84 -25 48 -114 9 -202 -89 l-53
-59 -185 -40 c-223 -48 -330 -66 -740 -127 -436 -64 -395 -61 -413 -33 -19 30
-58 198 -59 253 0 22 3 55 7 73 6 25 3 33 -12 42 -11 5 -25 27 -31 48 -21 73
-122 650 -114 657 2 3 14 -1 26 -9 50 -33 245 -112 421 -171 170 -56 549 -168
616 -181 21 -4 43 11 130 89 57 51 182 155 277 231 95 76 203 167 240 202 37
35 70 60 74 57 4 -4 14 -70 22 -147z m930 25 c-43 -33 -83 -60 -89 -60 -12 0
-151 96 -160 110 -4 6 57 10 161 10 l166 0 -78 -60z m109 -77 c8 -62 11 -113
7 -113 -10 0 -169 100 -175 110 -3 5 29 37 72 71 42 34 78 57 80 53 1 -5 9
-60 16 -121z m-300 62 c82 -55 92 -64 81 -74 -23 -22 -157 -121 -163 -121 -3
0 -5 54 -3 121 4 137 -1 133 85 74z m-3814 -19 c28 -30 53 -112 45 -148 -4
-21 -12 -28 -29 -28 -13 0 -30 -3 -38 -6 -27 -10 -49 25 -44 70 7 53 30 136
38 136 3 0 16 -11 28 -24z m435 -46 c22 -8 26 -16 26 -50 0 -46 11 -51 30 -15
7 14 19 25 27 25 33 0 -4 -97 -46 -119 -25 -14 -115 -9 -134 7 -20 17 -39 87
-31 117 3 14 14 30 23 35 21 12 73 13 105 0z m3587 -72 c54 -35 99 -66 99 -70
0 -3 -36 -35 -81 -71 l-81 -64 -104 61 c-57 33 -104 64 -104 68 0 6 160 136
169 137 2 1 48 -27 102 -61z m-3813 -40 c4 -19 -27 -33 -41 -19 -7 7 -6 16 3
26 15 18 34 15 38 -7z m25 -74 c2 -28 0 -29 -43 -32 -61 -3 -78 8 -62 43 10
21 18 26 35 21 12 -3 29 -1 37 4 19 12 30 0 33 -36z m-187 -44 c28 -90 29
-102 7 -98 -12 2 -23 23 -35 63 -36 129 -12 159 28 35z m3762 21 c118 -68 132
-76 132 -81 -1 -12 -218 -166 -224 -159 -8 8 7 279 16 279 5 0 39 -17 76 -39z
m325 17 c3 -13 9 -62 12 -110 5 -64 4 -88 -4 -88 -15 0 -161 93 -161 102 0 8
131 117 141 117 4 1 9 -9 12 -21z m-3718 1 c4 -5 -1 -42 -10 -80 -13 -53 -21
-69 -32 -65 -8 3 -19 6 -25 6 -13 0 -4 99 12 129 11 22 44 28 55 10z m-167
-203 c1 -82 -1 -153 -5 -156 -5 -4 -25 -5 -45 -3 -35 5 -39 9 -58 59 -15 42
-20 79 -20 157 l0 102 62 -5 63 -5 3 -149z m342 139 c0 -18 -5 -25 -19 -25
-26 0 -36 17 -21 35 19 23 40 18 40 -10z m-18 -45 c22 0 23 -23 2 -44 -19 -20
-28 -20 -63 -1 -38 19 -45 40 -18 58 19 12 25 13 42 1 11 -8 27 -14 37 -14z
m3483 -62 c74 -48 92 -64 84 -74 -16 -19 -185 -144 -194 -144 -14 0 -194 115
-192 122 2 6 198 158 205 158 2 0 45 -28 97 -62z m-3946 -83 c24 -82 26 -96
12 -93 -10 2 -26 33 -45 86 -23 67 -26 85 -16 97 7 9 15 14 17 11 2 -2 17 -47
32 -101z m385 90 c11 -8 35 -15 53 -15 18 0 33 -2 33 -4 0 -18 -75 -158 -88
-165 -10 -5 -42 -13 -70 -17 -52 -7 -52 -6 -52 21 0 36 75 195 92 195 7 0 22
-7 32 -15z m-114 -12 c0 -10 -7 -56 -17 -101 -16 -82 -28 -100 -57 -89 -12 5
-12 17 0 84 23 126 22 123 49 123 17 0 25 -6 25 -17z m3783 -111 c12 -58 20
-235 11 -231 -64 28 -213 114 -207 120 17 16 178 138 184 138 4 1 9 -12 12
-27z m-334 -55 c47 -28 86 -56 87 -62 3 -10 -30 -36 -151 -121 l-65 -46 0 65
c0 35 3 98 6 140 6 61 10 77 23 77 9 0 54 -24 100 -53z m-3552 11 c-3 -8 -6
-5 -6 6 -1 11 2 17 5 13 3 -3 4 -12 1 -19z m-200 6 c-3 -3 -12 -4 -19 -1 -8 3
-5 6 6 6 11 1 17 -2 13 -5z m188 -60 c65 -4 127 -1 178 8 l77 14 0 -38 c0 -24
-7 -45 -19 -57 -59 -59 -404 -50 -443 12 -4 7 -8 31 -8 53 l0 41 58 -14 c31
-7 102 -16 157 -19z m3798 -95 c131 -69 122 -55 133 -211 l6 -98 -251 0 -252
0 3 102 3 101 115 84 c63 46 118 83 121 83 4 0 58 -28 122 -61z m-3788 -33
c61 0 131 3 158 7 l47 8 0 -171 0 -171 -37 -16 c-79 -33 -303 -24 -335 14 -9
11 -14 65 -16 184 l-4 168 39 -11 c21 -6 88 -11 148 -12z m1095 -15 c0 -12
-123 -101 -140 -101 -28 0 0 33 60 69 70 42 80 46 80 32z m40 -39 c0 -25 -61
-81 -145 -134 -75 -48 -179 -138 -196 -170 -7 -14 -7 -33 1 -66 10 -40 9 -55
-8 -102 -14 -41 -24 -56 -40 -58 -25 -4 -26 -1 -11 65 9 40 7 57 -9 103 -10
30 -26 56 -34 58 -10 2 -26 -23 -50 -75 -40 -88 -100 -163 -129 -163 -34 0
-32 28 5 79 24 34 37 66 42 101 10 74 49 128 132 183 39 26 79 47 88 47 8 0
14 3 12 8 -2 4 -10 19 -17 34 -12 24 -12 31 3 53 16 25 52 45 81 45 20 0 63
-42 67 -65 2 -15 -7 -23 -39 -34 -44 -16 -62 -38 -20 -25 76 23 129 49 182 89
64 49 85 55 85 27z m1648 -8 c2 -11 -16 -63 -38 -115 -41 -93 -82 -262 -79
-324 1 -17 -14 -63 -34 -104 -35 -70 -40 -116 -10 -75 54 73 52 71 53 48 0
-41 -29 -116 -70 -179 -69 -106 -74 -106 -66 5 5 60 14 110 27 136 21 44 25
84 9 84 -16 0 -11 49 15 148 14 51 25 99 24 105 -1 22 -38 -97 -54 -173 -10
-51 -22 -81 -36 -92 -39 -33 -42 -24 -35 90 9 149 12 163 42 156 28 -7 29 1
10 48 -13 31 -13 38 5 78 56 125 226 243 237 164z m-1648 -135 c7 -39 9 -73 6
-76 -3 -3 -56 -2 -117 3 l-112 9 99 67 c54 36 102 67 106 67 3 1 12 -31 18
-70z m1390 -18 c0 -5 -4 -21 -10 -35 l-10 -26 -141 0 c-78 0 -140 2 -137 5 4
4 255 59 291 64 4 1 7 -3 7 -8z m-129 -197 c22 -20 28 -50 16 -87 -17 -50 -92
-63 -132 -22 -43 42 -30 107 25 128 23 9 71 -1 91 -19z m15 -199 c49 -48 53
-48 121 -9 17 10 35 16 38 12 11 -10 -32 -75 -65 -98 -36 -25 -51 -25 -85 2
l-28 22 7 -145 c4 -79 9 -157 12 -174 3 -19 -1 -37 -10 -50 -15 -19 -17 -19
-30 -3 -7 10 -16 57 -20 104 -10 139 -20 158 -52 109 -12 -18 -18 -56 -22
-121 -5 -97 -12 -115 -37 -94 -20 17 -20 230 0 324 15 71 13 98 -4 53 -9 -23
-13 -42 -27 -135 -8 -55 -27 -26 -20 32 9 78 34 152 62 186 22 25 33 30 70 30
40 0 50 -5 90 -45z m113 -180 c-8 -108 -18 -109 -38 -2 -8 43 -6 49 12 62 12
8 24 15 27 15 3 0 3 -34 -1 -75z"/>
<path d="M3435 1803 c-22 -3 -44 -9 -50 -14 -10 -11 80 -4 160 11 39 8 38 8
-15 7 -30 0 -73 -2 -95 -4z"/>
<path d="M3650 1720 c-30 -5 -86 -8 -125 -9 -94 -1 -318 -30 -330 -43 -7 -7 0
-8 20 -4 54 11 278 34 387 41 58 3 119 10 135 15 l28 8 -30 0 c-16 -1 -55 -4
-85 -8z"/>
<path d="M2525 1699 c-87 -13 -146 -32 -159 -51 -7 -12 -5 -47 7 -125 9 -59
19 -130 23 -156 6 -45 27 -82 42 -73 4 2 74 9 157 16 197 16 195 15 195 87 0
32 -7 108 -15 168 -8 61 -15 111 -15 112 0 1 -7 9 -16 17 -17 18 -114 20 -219
5z m209 -19 c11 -11 35 -191 36 -272 0 -69 8 -66 -183 -82 -108 -10 -145 -10
-155 -1 -14 13 -39 141 -49 251 l-6 70 44 14 c57 17 236 40 274 34 16 -2 34
-9 39 -14z"/>
<path d="M3408 1526 c-32 -7 -61 -16 -65 -20 -5 -5 1 -6 12 -3 11 3 57 11 103
18 45 6 82 13 82 15 0 8 -76 2 -132 -10z"/>
<path d="M1759 3897 c-33 -22 -51 -57 -30 -57 6 0 11 7 11 15 0 9 16 25 35 36
19 12 35 23 35 25 0 10 -19 2 -51 -19z"/>
<path d="M1955 3434 c-39 -24 -48 -24 -115 -8 -24 5 -24 5 -6 -10 28 -22 92
-20 132 5 19 11 34 25 34 30 0 11 4 12 -45 -17z"/>
<path d="M2870 3101 c-5 -11 -9 -37 -9 -58 l1 -38 8 38 c4 21 12 43 19 50 14
14 14 27 1 27 -5 0 -14 -9 -20 -19z"/>
<path d="M3912 2694 c43 -89 49 -109 44 -138 -4 -22 -3 -27 4 -16 24 37 -4
146 -40 158 -7 3 -11 1 -8 -4z"/>
<path d="M640 2193 c0 -39 31 -103 50 -103 6 0 1 13 -11 29 -14 19 -22 44 -22
70 0 23 -4 41 -8 41 -5 0 -9 -17 -9 -37z"/>
<path d="M720 1231 c8 -4 47 -4 85 -1 l70 7 -85 1 c-47 1 -78 -2 -70 -7z"/>
<path d="M4358 1213 c-33 -2 -58 -9 -58 -15 0 -7 17 -9 53 -4 28 3 63 6 77 6
20 0 22 2 10 10 -8 5 -17 9 -20 8 -3 -1 -31 -3 -62 -5z"/>
<path d="M5108 1203 c17 -2 47 -2 65 0 17 2 3 4 -33 4 -36 0 -50 -2 -32 -4z"/>
<path d="M2424 1011 c-42 -26 -60 -70 -45 -113 10 -29 10 -34 -6 -43 -59 -33
-133 -142 -149 -220 -4 -22 -16 -35 -47 -50 -64 -32 -80 -61 -78 -142 1 -57
-2 -73 -19 -91 -25 -26 -52 -28 -75 -6 -21 21 -16 59 8 58 9 -1 17 2 17 7 0 5
-11 9 -24 9 -32 0 -42 -37 -17 -70 12 -17 29 -26 54 -28 32 -3 39 1 57 30 15
25 19 47 17 96 -2 62 -1 64 36 99 33 30 44 34 71 29 39 -8 55 7 86 78 11 27
23 47 25 44 3 -3 -2 -40 -11 -84 -9 -43 -17 -121 -18 -173 -1 -79 2 -95 16
-105 34 -21 52 4 65 90 7 43 15 94 18 112 4 19 12 32 20 32 12 0 15 -20 15
-103 0 -118 9 -141 55 -135 l30 3 3 108 c2 64 7 107 13 107 5 0 17 16 25 36
l15 37 192 -7 c259 -9 347 9 355 76 4 29 -15 47 -72 69 -39 16 -41 19 -44 64
-3 38 1 52 18 70 12 13 19 29 15 35 -24 39 -186 55 -251 24 -37 -17 -42 -38
-19 -68 24 -31 20 -121 -6 -145 -51 -47 5 -85 126 -85 75 1 155 21 155 40 0 4
-10 18 -22 31 -30 32 -17 38 35 15 55 -25 63 -36 43 -67 -25 -39 -76 -46 -313
-43 l-218 3 -8 70 c-4 39 -12 82 -18 97 -9 22 -7 30 10 47 29 29 36 82 16 124
-27 57 -93 74 -151 38z m125 -27 c43 -55 10 -144 -54 -144 -60 0 -115 60 -98
108 23 65 112 86 152 36z m419 -33 c57 -11 74 -27 48 -47 -14 -10 -48 -14
-115 -14 -101 0 -128 8 -118 34 12 30 101 43 185 27z m23 -108 c-4 -33 -11
-39 -62 -47 -67 -11 -141 28 -127 65 4 11 27 14 99 12 l94 -2 -4 -28z m-508
-20 c32 -4 41 -11 53 -39 16 -39 19 -200 4 -209 -6 -4 -10 20 -10 64 0 38 -4
73 -10 76 -7 4 -10 -58 -10 -179 0 -187 -3 -201 -37 -188 -9 3 -13 36 -13 118
0 102 -2 114 -19 124 -32 17 -45 -9 -65 -129 -17 -98 -21 -111 -39 -111 -19 0
-20 4 -13 108 4 59 15 147 26 197 10 49 16 92 13 95 -9 9 -63 -65 -75 -103
-13 -44 -34 -65 -49 -50 -15 15 22 113 64 171 40 56 71 75 112 67 17 -4 47 -9
68 -12z m507 -64 c0 -33 -15 -39 -91 -39 -46 0 -64 5 -79 20 -38 38 -27 45 75
45 l95 0 0 -26z m-128 -52 c36 -8 60 -8 97 2 28 7 55 10 61 6 56 -35 -139 -62
-215 -31 -19 8 -35 19 -35 24 0 15 14 23 29 16 9 -4 37 -12 63 -17z"/>
<path d="M2885 930 c-3 -6 1 -13 10 -16 19 -8 30 0 20 15 -8 14 -22 14 -30 1z"/>
<path d="M4135 1026 c-5 -3 -23 -7 -38 -11 l-29 -6 7 -68 7 -68 -36 -22 c-45
-28 -51 -52 -37 -154 6 -45 12 -91 14 -101 1 -13 -6 -21 -26 -27 -58 -16 -76
-58 -36 -80 33 -17 252 -23 339 -9 149 24 149 24 175 0 20 -18 30 -21 64 -15
117 20 98 95 -24 95 -37 0 -144 17 -153 25 -1 1 4 51 13 110 8 60 15 114 15
122 0 7 -18 24 -39 39 l-39 25 5 59 c5 50 3 59 -14 68 -19 11 -151 24 -168 18z
m140 -26 c13 -6 -6 -9 -60 -9 -44 0 -87 4 -95 9 -19 12 126 12 155 0z m35 -29
c0 -5 -7 -14 -15 -21 -21 -18 -193 -10 -205 10 -5 8 -7 17 -5 20 5 8 225 0
225 -9z m-13 -75 c-3 -24 2 -32 30 -48 99 -59 35 -106 -139 -101 -79 2 -141
17 -159 39 -12 14 -8 21 30 53 27 23 42 44 41 56 -1 11 -2 22 -1 25 0 3 46 5
102 5 l101 0 -5 -29z m-201 -157 c47 -12 216 -8 248 6 17 8 18 4 14 -44 -3
-28 -8 -54 -11 -57 -21 -22 -165 -30 -245 -15 -56 11 -69 25 -78 85 -6 44 -5
49 11 42 10 -3 37 -11 61 -17z m104 -133 c47 0 97 3 113 7 24 7 27 5 27 -18 0
-14 -11 -37 -25 -50 -21 -22 -33 -25 -92 -25 -136 1 -183 22 -183 81 0 27 1
27 38 17 20 -6 75 -12 122 -12z m293 -62 c89 -8 116 -20 95 -40 -8 -8 -28 -18
-46 -23 -26 -8 -36 -6 -50 8 -26 28 -59 31 -131 15 -83 -20 -373 -16 -393 4
-11 11 -9 17 11 33 30 24 49 24 69 -1 37 -45 262 -48 286 -5 16 30 26 34 58
24 16 -4 61 -11 101 -15z"/>
<path d="M1370 999 c0 -12 149 -9 156 3 3 4 -31 8 -75 8 -51 0 -81 -4 -81 -11z"/>
<path d="M1910 1000 c0 -5 11 -10 25 -10 14 0 25 5 25 10 0 6 -11 10 -25 10
-14 0 -25 -4 -25 -10z"/>
<path d="M3844 976 c5 -26 1 -48 -13 -81 -23 -53 -19 -59 9 -12 22 35 27 111
9 123 -9 5 -10 -3 -5 -30z"/>
<path d="M4436 870 c5 -14 9 -44 9 -67 0 -23 3 -37 7 -30 14 23 9 94 -8 108
-15 12 -16 11 -8 -11z"/>
<path d="M2208 793 c-28 -32 -48 -81 -47 -115 1 -31 2 -30 14 13 7 26 25 63
40 83 27 36 22 51 -7 19z"/>
<path d="M2660 690 c20 -13 63 -13 55 0 -3 6 -21 10 -38 10 -24 0 -28 -3 -17
-10z"/>
<path d="M3677 523 c18 -2 50 -2 70 0 21 2 7 4 -32 4 -38 0 -55 -2 -38 -4z"/>
<path d="M4657 524 c-4 -4 -7 -14 -7 -21 0 -10 11 -13 43 -11 29 2 42 8 42 18
0 16 -64 27 -78 14z m63 -14 c0 -5 -11 -10 -25 -10 -14 0 -25 5 -25 10 0 6 11
10 25 10 14 0 25 -4 25 -10z"/>
<path d="M4775 500 c3 -5 32 -9 63 -9 47 1 52 3 27 9 -45 12 -97 12 -90 0z"/>
<path d="M2229 339 c-10 -6 -4 -9 19 -9 17 0 32 2 32 4 0 9 -39 13 -51 5z"/>
<path d="M2550 340 c0 -12 36 -12 100 -1 43 8 41 9 -27 10 -43 0 -73 -3 -73
-9z"/>
</g>
</svg>
