<?xml version="1.0" standalone="no"?>
<!DOCTYPE svg PUBLIC "-//W3C//DTD SVG 20010904//EN"
 "http://www.w3.org/TR/2001/REC-SVG-20010904/DTD/svg10.dtd">
<svg version="1.0" xmlns="http://www.w3.org/2000/svg"
 width="320.000000pt" height="240.000000pt" viewBox="0 0 320.000000 240.000000"
 preserveAspectRatio="xMidYMid meet">

<g transform="translate(0.000000,240.000000) scale(0.100000,-0.100000)"
fill="#000000" stroke="none">
<path d="M388 1899 c-10 -5 -18 -20 -17 -32 l0 -22 9 23 c8 19 17 22 62 23 42
1 48 3 28 9 -35 11 -62 11 -82 -1z"/>
<path d="M500 1898 c0 -5 11 -6 24 -2 19 4 30 -1 51 -24 15 -17 38 -33 51 -36
13 -4 24 -13 24 -22 0 -8 5 -12 10 -9 18 11 10 26 -22 40 -18 7 -43 25 -56 39
-16 19 -30 26 -52 24 -17 -1 -30 -6 -30 -10z"/>
<path d="M340 1799 c-11 -32 -11 -47 -2 -73 7 -18 12 -44 12 -57 0 -25 16 -49
33 -49 5 0 1 7 -8 16 -9 9 -14 23 -11 30 3 8 1 27 -5 42 -14 35 -14 91 0 105
13 13 14 27 3 27 -5 0 -15 -18 -22 -41z"/>
<path d="M531 1795 c0 -17 -8 -41 -17 -53 -8 -12 -11 -22 -6 -22 16 0 34 46
29 76 l-4 29 -2 -30z"/>
<path d="M590 1812 c34 -7 35 -8 40 -62 3 -30 11 -65 18 -77 11 -19 10 -23 -1
-23 -8 0 -20 -6 -27 -14 -6 -8 -19 -12 -28 -9 -14 6 -15 4 -4 -9 24 -29 4 -48
-52 -48 -50 -1 -51 -1 -26 -16 14 -8 17 -13 8 -10 -9 3 -35 10 -57 16 -22 6
-43 15 -47 21 -3 6 13 28 36 50 29 27 36 39 24 37 -14 -2 -19 3 -19 22 0 18 5
25 18 24 19 -2 23 11 7 21 -20 12 -41 -17 -38 -51 1 -19 -4 -40 -14 -51 -22
-25 -74 -130 -87 -177 -30 -110 137 -364 294 -447 25 -13 45 -27 45 -31 0 -12
-139 -9 -182 2 -76 21 -116 65 -169 185 -27 60 -49 118 -49 127 0 10 10 20 25
24 14 3 25 10 25 14 0 8 -89 -13 -119 -29 -36 -20 -45 -81 -32 -227 12 -138
39 -265 69 -323 10 -19 34 -42 53 -52 31 -17 35 -25 50 -96 9 -43 14 -81 12
-85 -2 -5 -43 -8 -91 -8 -48 0 -94 -5 -102 -10 -10 -6 496 -10 1438 -10 966 0
1451 3 1447 10 -3 6 -39 10 -78 10 -40 0 -123 3 -186 7 l-113 6 7 61 c9 84 15
106 30 106 8 0 27 11 43 25 55 46 102 251 102 443 0 102 -1 104 -30 134 l-30
30 -110 -3 c-100 -2 -112 -1 -132 19 -13 11 -43 25 -68 31 -76 17 -323 31
-545 31 -251 -1 -390 -12 -415 -35 -15 -13 -19 -13 -29 -1 -6 7 -25 16 -41 19
l-29 6 20 46 c20 45 20 75 0 75 -5 0 -20 -27 -33 -60 l-23 -60 -337 0 c-185 0
-343 -3 -351 -6 -16 -6 -157 131 -157 152 0 7 11 15 25 18 16 4 32 20 42 41 9
19 25 37 35 41 21 6 23 17 6 47 -7 12 -15 47 -18 77 l-5 55 -40 2 -40 1 35 -6z
m-112 -273 c51 -17 72 -32 120 -83 31 -35 100 -92 152 -128 114 -78 120 -81
120 -71 0 4 -34 31 -76 58 l-75 50 58 6 c32 4 181 7 331 8 215 1 272 -2 272
-12 0 -7 -13 -44 -29 -82 -16 -38 -28 -72 -25 -74 6 -7 7 -6 64 137 30 73 57
135 62 138 8 5 2 -11 -69 -186 l-39 -95 -77 -3 c-66 -2 -80 0 -99 17 -12 12
-41 28 -64 37 -37 14 -51 15 -91 4 -27 -6 -107 -14 -179 -17 l-131 -6 -98 137
c-104 147 -127 166 -177 145 -30 -12 -58 -55 -58 -86 0 -10 9 1 20 24 19 43
47 59 86 51 28 -5 214 -268 208 -293 -4 -15 -3 -16 4 -6 7 9 46 15 142 19
l132 5 -4 -23 c-3 -21 -15 -27 -118 -51 -132 -32 -161 -34 -198 -15 -27 14
-179 166 -220 220 -12 16 -25 27 -28 24 -18 -18 228 -262 274 -273 25 -5 90 6
175 31 14 5 9 -13 -28 -85 -25 -50 -51 -91 -59 -91 -7 0 -47 17 -87 37 -107
53 -212 161 -268 274 -56 112 -61 151 -28 223 14 31 30 56 35 56 4 0 36 -9 70
-21z m1897 -170 c133 -13 173 -25 186 -53 7 -15 8 -75 2 -182 l-8 -159 -27 1
c-16 0 -108 1 -205 2 l-178 2 0 172 0 173 -24 3 c-13 2 -27 -2 -32 -10 -7 -10
-11 -9 -22 6 -15 21 -46 19 -58 -4 -32 -63 -79 -175 -79 -190 0 -11 -4 -21
-10 -25 -9 -5 -302 19 -367 31 l-33 6 0 98 c0 74 4 102 15 113 14 14 56 20
215 31 90 6 517 -4 625 -15z m-883 -16 c15 -13 18 -32 18 -115 l0 -99 -37 6
c-134 22 -145 26 -130 43 8 10 29 54 48 100 29 72 36 82 58 82 13 0 33 -7 43
-17z m548 -91 c0 -47 -6 -67 -30 -105 -16 -26 -30 -55 -30 -64 0 -21 -12 -8
-28 29 -10 24 -9 31 13 52 13 13 21 27 18 30 -4 3 -1 6 6 6 7 0 9 5 6 10 -8
13 24 100 36 100 5 0 9 -26 9 -58z m17 -9 c-2 -16 -4 -5 -4 22 0 28 2 40 4 28
2 -13 2 -35 0 -50z m46 -233 c-8 -55 -8 -55 -46 -58 l-37 -3 6 40 c5 29 2 48
-10 65 -21 33 -20 52 4 69 11 8 17 17 13 20 -3 4 -1 7 6 7 7 0 9 5 6 10 -3 6
-1 10 6 10 7 0 10 3 7 6 -4 3 1 22 9 42 39 93 38 94 41 -33 1 -66 -1 -145 -5
-175z m34 138 c-7 -153 -13 -198 -27 -198 -4 0 -3 21 1 47 5 27 10 105 12 175
1 71 6 128 11 128 5 0 6 -63 3 -152z m685 124 c21 -21 23 -31 22 -140 -2 -204
-49 -387 -108 -423 -30 -18 -65 -19 -1218 -19 -900 0 -1193 3 -1213 12 -59 27
-102 184 -112 404 -6 135 -5 142 16 163 26 26 47 27 54 4 24 -80 103 -234 140
-270 40 -42 41 -43 15 -43 -14 0 -37 -9 -52 -21 -37 -29 -37 -89 0 -118 26
-21 30 -21 1156 -21 l1130 0 29 29 c31 31 35 51 19 80 -10 20 -78 51 -111 51
-19 0 -20 4 -14 153 4 83 8 157 10 164 5 16 38 21 132 20 71 -2 86 -5 105 -25z
m-1752 -32 c0 -5 19 -18 43 -30 23 -11 33 -17 22 -14 -11 4 -31 8 -45 11 -23
3 -22 2 5 -11 29 -14 28 -14 -47 -15 -75 -1 -78 0 -78 22 0 19 8 26 38 34 50
14 62 15 62 3z m163 -77 c-45 -2 -122 -2 -170 0 -48 1 -11 3 82 3 94 0 133 -2
88 -3z m187 -33 c141 -21 264 -36 392 -46 97 -7 94 -5 104 -90 l7 -54 -134 -1
c-74 -1 -195 -3 -269 -4 -216 -3 -718 9 -727 18 -14 14 79 178 108 191 41 17
370 9 519 -14z m530 -45 c0 -8 -7 -15 -16 -15 -14 0 -14 3 -4 15 7 8 14 15 16
15 2 0 4 -7 4 -15z m55 -45 c22 -42 6 -70 -40 -70 -33 0 -35 2 -35 35 0 19 -1
38 -2 42 -2 4 11 11 27 14 17 4 31 7 32 8 1 0 9 -13 18 -29z m-1219 -101 c55
-13 113 -20 153 -18 37 2 180 2 319 1 l252 -2 0 -45 c0 -39 -3 -47 -25 -55
-14 -5 -248 -10 -553 -10 -522 0 -529 0 -555 21 -32 24 -35 57 -8 90 19 23 25
24 166 26 80 0 149 4 152 7 8 8 -2 9 99 -15z m1712 11 c154 -12 192 -26 192
-69 0 -62 20 -60 -592 -62 -305 -1 -561 2 -567 5 -6 4 -11 26 -11 50 l0 43
307 7 c229 5 313 10 332 20 32 17 161 19 339 6z m-2082 -341 c-3 -34 -6 -73
-6 -85 0 -14 -6 -24 -14 -24 -10 0 -18 22 -26 73 -6 39 -13 78 -15 85 -3 8 7
12 32 12 l36 0 -7 -61z m39 -1 c-8 -78 -14 -98 -26 -98 -10 0 -8 33 7 128 3
17 10 32 15 32 7 0 9 -21 4 -62z m2109 45 c2 -10 8 -46 11 -80 l7 -63 -774 0
c-425 0 -879 -2 -1008 -5 -129 -3 -260 -3 -291 1 l-55 6 9 67 c4 36 10 72 12
79 4 9 221 12 1044 12 982 0 1040 -1 1045 -17z m41 -40 c3 -32 8 -68 11 -80 4
-22 -9 -32 -19 -15 -11 18 -19 152 -9 152 6 0 13 -26 17 -57z m71 5 c-12 -97
-18 -118 -32 -118 -8 0 -14 11 -15 28 0 15 -4 53 -8 85 l-7 57 34 0 35 0 -7
-52z"/>
<path d="M2764 1275 c-49 -34 -91 -211 -66 -275 8 -19 9 -12 5 33 -8 76 20
178 60 223 32 37 32 42 1 19z"/>
<path d="M950 1145 c0 -6 4 -15 9 -20 5 -6 11 -21 14 -35 l4 -25 2 26 c0 14
-6 34 -14 45 -8 10 -15 14 -15 9z"/>
<path d="M1877 1020 c3 -25 7 -47 9 -49 8 -9 2 55 -6 74 -6 13 -7 5 -3 -25z"/>
<path d="M595 1740 c-3 -5 1 -10 9 -10 9 0 16 5 16 10 0 6 -4 10 -9 10 -6 0
-13 -4 -16 -10z"/>
</g>
</svg>
